<svg preserveAspectRatio="none" width="100%" height="100%" overflow="visible" style="display: block;" viewBox="0 0 500 372" fill="none" xmlns="http://www.w3.org/2000/svg">
<g id="undraw_celebration_wtm8 1">
<path id="Vector" d="M156.87 143.438C154.345 140.156 150.775 137.119 150.549 133.068C150.342 129.353 153.104 125.665 151.939 122.11C151.043 119.378 148.088 117.729 145.201 116.856C139.673 115.208 133.758 115.436 128.372 117.505L128.665 117.299C125.378 116.124 121.536 117.337 118.95 119.582C116.364 121.827 114.827 124.939 113.635 128.058C112.442 131.177 111.518 134.409 109.861 137.333C108.204 140.257 105.667 142.916 102.319 143.926C103.44 146.168 106.943 146.937 108.998 145.392C109.523 144.965 109.994 144.476 110.403 143.935C111.773 142.264 113.143 140.593 114.514 138.922C115.924 141.437 113.817 144.908 115.551 147.237C116.444 148.437 118.076 148.893 119.592 149.22C131.441 151.756 143.731 151.299 155.359 147.89C156.294 147.614 157.325 147.233 157.713 146.385C158.161 145.405 157.534 144.301 156.87 143.438Z" fill="var(--fill-0, #AE5B67)"/>
<path id="Vector_2" d="M190.465 156.248C190.391 156.574 190.343 156.906 190.321 157.239L164.424 172.223L158.13 168.589L151.42 177.399L161.939 184.919C162.789 185.526 163.813 185.841 164.856 185.816C165.899 185.79 166.906 185.426 167.725 184.778L194.429 163.649C195.634 164.096 196.947 164.165 198.192 163.846C199.437 163.527 200.556 162.836 201.399 161.864C202.243 160.892 202.771 159.685 202.915 158.404C203.058 157.123 202.809 155.829 202.201 154.694C201.592 153.558 200.654 152.636 199.51 152.048C198.367 151.461 197.071 151.236 195.798 151.405C194.524 151.574 193.331 152.127 192.378 152.993C191.426 153.858 190.758 154.993 190.465 156.248Z" fill="var(--fill-0, #FEB3B3)"/>
<path id="Vector_3" d="M163.559 172.933L155.189 183.812C154.951 184.121 154.649 184.376 154.304 184.558C153.959 184.74 153.579 184.845 153.19 184.866C152.8 184.888 152.411 184.825 152.048 184.682C151.685 184.539 151.358 184.319 151.087 184.037L141.612 174.169C140.04 172.938 139.018 171.132 138.771 169.147C138.525 167.162 139.073 165.159 140.296 163.579C141.519 161.999 143.317 160.969 145.296 160.717C147.275 160.464 149.273 161.009 150.852 162.232L162.736 168.896C163.076 169.087 163.371 169.349 163.601 169.665C163.831 169.981 163.99 170.342 164.069 170.725C164.147 171.108 164.142 171.504 164.054 171.885C163.966 172.266 163.797 172.623 163.559 172.933Z" fill="var(--fill-0, #D0C8E5)"/>
<path id="Vector_4" d="M152.04 362.492L159.43 362.491L162.946 333.901L152.038 333.901L152.04 362.492Z" fill="var(--fill-0, #FEB3B3)"/>
<path id="Vector_5" d="M150.155 360.072L164.71 360.071H164.71C167.17 360.071 169.529 361.052 171.269 362.796C173.008 364.541 173.985 366.907 173.986 369.374V369.676L150.155 369.677L150.155 360.072Z" fill="var(--fill-0, #2C2244)"/>
<path id="Vector_6" d="M101.401 362.492L108.792 362.491L112.308 333.901L101.4 333.901L101.401 362.492Z" fill="var(--fill-0, #FEB3B3)"/>
<path id="Vector_7" d="M99.516 360.072L114.071 360.071H114.072C116.532 360.071 118.891 361.052 120.63 362.796C122.37 364.541 123.347 366.907 123.347 369.374V369.676L99.5165 369.677L99.516 360.072Z" fill="var(--fill-0, #2C2244)"/>
<path id="Vector_8" d="M147.601 139.396C148.371 132.364 143.311 126.037 136.299 125.265C129.286 124.493 122.978 129.568 122.208 136.601C121.438 143.633 126.499 149.96 133.511 150.732C140.523 151.504 146.832 146.429 147.601 139.396Z" fill="var(--fill-0, #FEB3B3)"/>
<path id="Vector_9" d="M142.378 157.203L149.903 160.941C149.903 160.941 158.311 175.595 153.488 189.501C151.146 196.253 157.74 217.775 157.74 217.775C157.74 217.775 167.956 315.26 167.988 345.347C155.296 347.304 143.24 349.723 142.637 343.677C142.034 337.631 135.435 266.143 135.435 266.143C135.435 266.143 126.36 345.491 119.126 346.7C111.892 347.909 97.4239 346.095 97.4239 346.095C97.4239 346.095 108.91 229.867 116.747 222.612L117.953 216.565L117.92 162.294L126.949 157.972L142.378 157.203Z" fill="var(--fill-0, #2C2244)"/>
<path id="Vector_10" d="M115.46 239.593C116.292 239.141 117.016 238.512 117.58 237.749C118.144 236.986 118.534 236.109 118.723 235.178C118.913 234.248 118.896 233.287 118.675 232.364C118.454 231.44 118.034 230.577 117.444 229.834L126.195 171.331L114.762 170.781L107.94 229.042C106.761 230.118 106.018 231.591 105.849 233.18C105.681 234.77 106.1 236.367 107.027 237.667C107.954 238.968 109.324 239.882 110.879 240.237C112.433 240.592 114.063 240.363 115.46 239.593Z" fill="var(--fill-0, #FEB3B3)"/>
<path id="Vector_11" d="M125.947 185.99L112.273 185.124C111.884 185.099 111.505 184.991 111.161 184.806C110.818 184.621 110.518 184.364 110.282 184.053C110.047 183.741 109.881 183.382 109.796 183.001C109.711 182.619 109.709 182.224 109.791 181.841L112.64 168.443C112.776 166.447 113.697 164.587 115.199 163.271C116.701 161.954 118.662 161.289 120.653 161.421C122.643 161.553 124.5 162.471 125.817 163.974C127.133 165.477 127.801 167.443 127.675 169.439L128.821 183.046C128.853 183.436 128.802 183.828 128.67 184.196C128.538 184.564 128.328 184.899 128.056 185.178C127.783 185.457 127.453 185.675 127.089 185.815C126.725 185.955 126.336 186.014 125.947 185.99Z" fill="var(--fill-0, #D0C8E5)"/>
<path id="Vector_12" d="M148.292 129.671C147.794 127.407 146.177 125.53 144.315 124.156C141.245 121.891 137.48 120.778 133.675 121.01C129.871 121.242 126.268 122.805 123.495 125.426C121.945 126.799 120.827 128.595 120.279 130.595C120.018 131.595 120.004 132.643 120.238 133.649C120.473 134.655 120.95 135.589 121.626 136.368L121.882 136.528C121.65 135.544 122.413 134.56 123.323 134.126C124.27 133.778 125.259 133.555 126.264 133.465C127.785 133.177 129.226 132.565 130.49 131.67C131.754 130.775 132.812 129.618 133.593 128.278C134.171 129.928 135.095 131.434 136.302 132.695C137.509 133.957 138.971 134.945 140.59 135.592C142.278 136.254 146.915 137.165 148.522 136.324C150.572 135.252 148.789 131.936 148.292 129.671Z" fill="var(--fill-0, #AE5B67)"/>
<path id="Path 438" d="M19.726 337.529C23.9142 339.009 28.4109 339.38 32.783 338.606C37.1551 337.831 41.2552 335.937 44.6883 333.106C53.4313 325.724 56.173 313.566 58.4028 302.306L65 269L51.1883 278.566C41.2551 285.445 31.0988 292.546 24.2218 302.51C17.3448 312.474 14.3446 326.077 19.8684 336.86" fill="var(--fill-0, #D0C8E5)"/>
<path id="Path 439" d="M19.4346 365.267C18.5172 358.564 17.5734 351.775 18.2184 345C18.79 338.983 20.6203 333.107 24.3466 328.288C26.3244 325.735 28.7312 323.547 31.4585 321.824C32.1695 321.374 32.8241 322.504 32.1161 322.952C27.3969 325.943 23.7468 330.36 21.6919 335.566C19.4224 341.355 19.058 347.666 19.4489 353.815C19.6852 357.534 20.1873 361.229 20.6916 364.919C20.7314 365.086 20.7065 365.262 20.622 365.411C20.5375 365.56 20.3997 365.671 20.2364 365.723C20.0698 365.768 19.8922 365.745 19.7422 365.66C19.5922 365.574 19.4818 365.433 19.435 365.266L19.4346 365.267Z" fill="var(--fill-0, #DFE4E6)"/>
<path id="Path 442" d="M31 352.478C32.7991 355.193 35.2724 357.402 38.1815 358.892C41.0906 360.382 44.3376 361.104 47.6094 360.988C56.0197 360.592 63.0282 354.77 69.3367 349.24L88 332.888L75.6485 332.302C66.7658 331.879 57.6539 331.483 49.1933 334.205C40.7328 336.926 32.9303 343.465 31.3834 352.155" fill="var(--fill-0, #D0C8E5)"/>
<path id="Path 443" d="M16.8416 369.12C21.258 361.283 26.3802 352.573 35.5335 349.788C38.0784 349.017 40.7468 348.741 43.3951 348.974C44.2299 349.047 44.0214 350.337 43.1884 350.265C38.749 349.895 34.3183 351.071 30.642 353.594C27.1042 356.009 24.3496 359.367 22.0185 362.927C20.5904 365.108 19.3112 367.382 18.0321 369.652C17.6234 370.378 16.4281 369.854 16.8416 369.12Z" fill="var(--fill-0, #DFE4E6)"/>
<path id="Vector_13" d="M337.954 121.338C334.959 107.786 322.23 99.0948 313.042 101.142C303.855 103.19 295.983 116.472 298.979 130.024C301.752 142.569 313.272 150.85 321.832 150.484C321.76 150.584 321.708 150.696 321.678 150.815L321.194 152.944C321.158 153.106 321.163 153.275 321.209 153.435C321.256 153.595 321.342 153.74 321.461 153.856C321.579 153.973 321.725 154.057 321.885 154.102C322.045 154.146 322.214 154.148 322.375 154.108L326.881 153.002C327.042 152.962 327.191 152.882 327.312 152.769C327.434 152.656 327.525 152.513 327.576 152.355C327.627 152.197 327.637 152.028 327.605 151.864C327.573 151.701 327.5 151.549 327.393 151.422L325.985 149.758C325.934 149.701 325.878 149.65 325.815 149.607C333.76 146.332 340.733 133.91 337.954 121.338Z" fill="var(--fill-0, #D0C8E5)"/>
<path id="Vector_14" d="M323.148 110.048C326.579 112.305 329.014 115.798 329.95 119.805C330.886 123.812 330.252 128.028 328.178 131.582C327.712 132.4 329.046 132.996 329.509 132.183C331.699 128.332 332.357 123.794 331.35 119.48C330.343 115.166 327.746 111.393 324.081 108.92C323.307 108.399 322.368 109.523 323.148 110.048Z" fill="var(--fill-0, #F5F6F7)"/>
<path id="Vector_15" d="M322.596 38.1861C329.841 26.3538 326.727 11.2255 318.709 6.28698C310.691 1.34841 295.829 5.40396 288.584 17.2362C281.877 28.1884 284.408 42.1787 290.81 47.8886C290.689 47.91 290.574 47.9544 290.469 48.0194L288.646 49.212C288.507 49.3029 288.394 49.428 288.316 49.5753C288.239 49.7225 288.201 49.8872 288.205 50.0536C288.209 50.22 288.255 50.3825 288.339 50.5259C288.424 50.6692 288.543 50.7886 288.686 50.8726L292.689 53.2212C292.833 53.3053 292.995 53.3512 293.161 53.3546C293.327 53.3581 293.491 53.3189 293.637 53.2409C293.784 53.1629 293.908 53.0486 293.998 52.9089C294.088 52.7692 294.142 52.6086 294.152 52.4426L294.295 50.2639C294.299 50.188 294.293 50.1118 294.278 50.0372C302.255 53.2258 315.875 49.1621 322.596 38.1861Z" fill="var(--fill-0, #0276B1)"/>
<path id="Vector_16" d="M319.793 19.7396C320.692 23.7565 320.018 27.9662 317.912 31.4997C315.806 35.0333 312.428 37.621 308.474 38.7286C307.572 38.9919 308.118 40.3513 309.014 40.0896C313.256 38.8494 316.875 36.0464 319.143 32.2426C321.412 28.4388 322.162 23.9155 321.245 19.5798C321.05 18.6652 319.597 18.8183 319.793 19.7396Z" fill="var(--fill-0, #F5F6F7)"/>
<path id="Vector_17" d="M236.381 90.0998C235.775 76.2276 224.746 65.4449 215.346 65.8579C205.946 66.2709 195.899 77.9794 196.505 91.8516C197.065 104.692 206.976 114.86 215.467 115.994C215.379 116.079 215.309 116.181 215.259 116.293L214.414 118.306C214.35 118.459 214.326 118.626 214.344 118.792C214.362 118.957 214.422 119.115 214.518 119.251C214.615 119.386 214.744 119.495 214.894 119.566C215.044 119.638 215.209 119.67 215.375 119.659L220.003 119.356C220.168 119.345 220.328 119.292 220.468 119.201C220.607 119.111 220.721 118.986 220.799 118.839C220.877 118.692 220.916 118.528 220.913 118.361C220.909 118.195 220.864 118.032 220.78 117.889L219.681 116.004C219.642 115.939 219.595 115.879 219.541 115.825C227.929 113.986 236.943 102.968 236.381 90.0998Z" fill="var(--fill-0, #B7E4FB)"/>
<path id="Vector_18" d="M223.756 76.3938C226.744 79.2165 228.537 83.082 228.766 87.1924C228.995 91.3028 227.641 95.3444 224.985 98.4828C224.385 99.2076 225.595 100.027 226.191 99.3073C229.014 95.8965 230.446 91.5417 230.2 87.1163C229.955 82.6909 228.051 78.522 224.87 75.4458C224.198 74.7973 223.079 75.7405 223.756 76.3938Z" fill="var(--fill-0, #F5F6F7)"/>
<path id="Vector_19" d="M279.482 182.127C275.859 181.898 272.341 180.811 269.217 178.955C266.094 177.099 263.453 174.528 261.512 171.451C260.968 170.578 260.257 169.62 260.634 168.546C260.765 168.135 261.032 167.78 261.39 167.54C261.748 167.3 262.177 167.189 262.607 167.225C263.717 167.36 264.434 168.45 264.571 169.494C264.726 170.678 263.893 171.607 262.864 172.047C260.351 173.122 257.816 171.461 255.769 170.135C251.105 167.114 245.974 164.381 240.322 164.037C235.093 163.718 229.486 165.774 226.577 170.323C226.068 171.118 227.332 171.854 227.838 171.062C230.723 166.551 236.554 164.931 241.624 165.628C244.646 166.107 247.564 167.1 250.251 168.566C251.645 169.291 252.996 170.095 254.32 170.941C255.581 171.822 256.916 172.59 258.312 173.235C260.639 174.194 263.721 174.119 265.346 171.912C266.863 169.852 265.691 166.423 263.154 165.844C262.598 165.734 262.023 165.764 261.481 165.932C260.939 166.1 260.447 166.4 260.049 166.805C259.651 167.21 259.359 167.708 259.2 168.254C259.042 168.801 259.02 169.378 259.139 169.934C259.392 171.147 260.302 172.334 261.007 173.325C263.125 176.313 265.884 178.787 269.082 180.563C272.279 182.34 275.833 183.375 279.482 183.591C280.421 183.638 280.419 182.173 279.482 182.127Z" fill="var(--fill-0, #0276B1)"/>
<path id="Vector_20" d="M419.725 81.2206C423.723 79.3553 428.631 78.7438 432.699 80.4771C436.767 82.2105 439.541 86.6533 438.225 90.5853C437.629 92.368 436.271 94.1212 436.8 95.9216C437.207 97.3074 438.628 98.2224 440.024 98.873C441.419 99.5235 442.945 100.07 443.955 101.168C444.964 102.265 445.174 104.154 443.914 105.005C443.498 105.285 442.979 105.418 442.576 105.713C442.233 105.993 441.985 106.373 441.868 106.801C441.75 107.229 441.769 107.682 441.921 108.099C442.256 108.937 442.811 109.669 443.527 110.218C444.958 111.456 446.849 112.873 446.405 114.63C446.24 115.1 445.964 115.522 445.602 115.862C445.239 116.203 444.8 116.45 444.322 116.584C443.329 116.871 442.298 117.007 441.265 116.988L399.034 118.323C397.64 118.428 396.238 118.349 394.864 118.089C394.196 117.967 393.561 117.708 392.997 117.328C392.434 116.949 391.955 116.456 391.589 115.883C390.781 114.381 391.312 112.532 392.31 111.13C393.309 109.728 394.723 108.622 395.891 107.335C397.058 106.048 398.014 104.441 397.808 102.777C397.643 101.445 396.768 100.294 396.139 99.0838C395.51 97.8737 395.145 96.3614 395.959 95.2481C397.107 93.6793 399.861 93.8212 401.166 92.3594C402.151 91.2562 401.961 89.6681 402.058 88.2455C402.294 84.8236 404.656 81.5919 408.019 80.0912C409.729 79.3551 411.588 79.0373 413.445 79.1641C415.301 79.2909 417.101 79.8587 418.696 80.8205L419.725 81.2206Z" fill="var(--fill-0, #2C2244)"/>
<path id="Vector_21" d="M471.155 250.56V257.487L444.516 260.783L444.516 250.559L471.155 250.56Z" fill="var(--fill-0, #9F505C)"/>
<path id="Vector_22" d="M477.85 248.794L477.849 271.129H477.567C475.268 271.129 473.064 270.213 471.438 268.582C469.813 266.952 468.9 264.741 468.9 262.435V262.435L468.9 248.794L477.85 248.794Z" fill="var(--fill-0, #2C2244)"/>
<path id="Vector_23" d="M438.224 262.343L436.528 269.058L409.898 265.694L412.4 255.784L438.224 262.343Z" fill="var(--fill-0, #9F505C)"/>
<path id="Vector_24" d="M445.146 262.279L439.679 283.93L439.406 283.861C437.177 283.295 435.264 281.864 434.088 279.883C432.911 277.903 432.567 275.534 433.131 273.299L436.47 260.075L445.146 262.279Z" fill="var(--fill-0, #2C2244)"/>
<path id="Vector_25" d="M431.423 184.665L432.861 186.168C432.861 186.168 442.247 193.549 435.303 212.994L423.943 245.814L462.018 247.303L461.202 262.3C461.202 262.3 405.986 265.381 406.469 256.254C406.952 247.128 408.989 213.335 408.989 213.335L397.517 204.095L400.283 188.467L431.423 184.665Z" fill="var(--fill-0, #2C2244)"/>
<path id="Vector_26" d="M401.928 199.559L397.517 204.095L382.728 244.868C382.728 244.868 380.475 255.037 385.545 257.297C390.615 259.557 423.237 272.199 423.237 272.199L426.569 260.175L401.432 245.043L413.148 229.613L414.911 205.293L401.928 199.559Z" fill="var(--fill-0, #2C2244)"/>
<path id="Vector_27" d="M402.163 127.632L439.701 120.104L440.517 140.76L430.793 161.546L432.861 186.168L399.218 192.063L400.272 159.687C400.272 159.687 391.237 146.904 396.559 134.019L402.163 127.632Z" fill="var(--fill-0, #D0C8E5)"/>
<path id="Vector_28" d="M485.867 78.6329C486.055 79.4999 486.052 80.3978 485.856 81.2632C485.661 82.1286 485.279 82.9406 484.737 83.6419C484.195 84.3432 483.506 84.9168 482.719 85.3223C481.932 85.7277 481.066 85.9552 480.182 85.9886L444.185 127.853L435.816 117.666L473.831 79.7181C473.874 78.2248 474.461 76.799 475.481 75.7108C476.502 74.6226 477.885 73.9477 479.369 73.8139C480.852 73.6802 482.333 74.0968 483.531 74.985C484.729 75.8732 485.56 77.1711 485.867 78.6329Z" fill="var(--fill-0, #9F505C)"/>
<path id="Vector_29" d="M452.022 123.285C452.031 123.676 451.955 124.064 451.801 124.423C451.646 124.782 451.416 125.103 451.126 125.365L441.004 134.504C439.733 136.046 437.905 137.02 435.919 137.212C433.934 137.405 431.953 136.8 430.411 135.53C428.87 134.26 427.893 132.429 427.695 130.438C427.498 128.447 428.095 126.459 429.357 124.909L436.422 113.18C436.624 112.846 436.895 112.559 437.217 112.338C437.54 112.118 437.906 111.97 438.29 111.905C438.674 111.839 439.068 111.858 439.445 111.959C439.822 112.06 440.172 112.241 440.473 112.49L451.038 121.245C451.339 121.494 451.582 121.805 451.752 122.157C451.922 122.509 452.014 122.894 452.022 123.285Z" fill="var(--fill-0, #D0C8E5)"/>
<path id="Vector_30" d="M343.303 177.017C343.247 176.131 343.385 175.244 343.707 174.418C344.03 173.592 344.529 172.846 345.17 172.235C345.811 171.623 346.578 171.159 347.416 170.877C348.255 170.594 349.145 170.5 350.024 170.6L391.877 134.627L398.628 145.958L355.365 177.755C355.1 179.225 354.306 180.546 353.134 181.469C351.962 182.391 350.494 182.85 349.007 182.759C347.52 182.668 346.118 182.033 345.067 180.975C344.016 179.917 343.388 178.508 343.303 177.017Z" fill="var(--fill-0, #9F505C)"/>
<path id="Vector_31" d="M383.445 137.964C383.495 137.576 383.628 137.203 383.835 136.872C384.041 136.54 384.317 136.257 384.643 136.042L396.017 128.53C397.504 127.196 399.458 126.508 401.45 126.617C403.442 126.725 405.31 127.621 406.644 129.109C407.978 130.596 408.67 132.554 408.567 134.552C408.465 136.55 407.576 138.426 406.097 139.768L397.357 150.301C397.107 150.602 396.796 150.845 396.445 151.014C396.093 151.183 395.709 151.274 395.319 151.281C394.93 151.288 394.543 151.211 394.185 151.054C393.828 150.898 393.509 150.666 393.249 150.374L384.113 140.129C383.853 139.837 383.659 139.493 383.543 139.119C383.428 138.746 383.394 138.351 383.445 137.964Z" fill="var(--fill-0, #D0C8E5)"/>
<path id="Vector_32" d="M418.162 117.994C425.804 117.994 431.998 111.782 431.998 104.118C431.998 96.4537 425.804 90.2408 418.162 90.2408C410.521 90.2408 404.326 96.4537 404.326 104.118C404.326 111.782 410.521 117.994 418.162 117.994Z" fill="var(--fill-0, #9F505C)"/>
<path id="Vector_33" d="M432.317 102.145C427.947 101.793 424.319 97.4149 424.774 93.0422C424.825 94.8446 424.214 96.6029 423.057 97.9828C421.899 99.3627 420.277 100.268 418.498 100.526C416.493 100.747 414.296 100.139 412.551 101.153C410.619 102.277 410.001 105.004 407.988 105.974C406.043 106.912 403.573 105.633 402.612 103.696C401.651 101.758 401.887 99.4297 402.523 97.3619C403.432 94.4131 405.085 91.7501 407.324 89.6321C409.562 87.514 412.309 86.0131 415.297 85.2751C418.285 84.5371 421.412 84.5872 424.375 85.4207C427.338 86.2541 430.036 87.8424 432.205 90.0311C434.043 91.8846 435.501 94.2468 435.738 96.8495C435.975 99.4523 434.771 102.276 432.44 103.446L432.317 102.145Z" fill="var(--fill-0, #2C2244)"/>
<path id="Vector_34" d="M498.694 370.578H1.30548C0.959247 370.578 0.627212 370.519 0.382386 370.413C0.13756 370.307 0 370.163 0 370.013C0 369.863 0.13756 369.72 0.382386 369.614C0.627212 369.508 0.959247 369.448 1.30548 369.448H498.694C499.041 369.448 499.373 369.508 499.618 369.614C499.862 369.72 500 369.863 500 370.013C500 370.163 499.862 370.307 499.618 370.413C499.373 370.519 499.041 370.578 498.694 370.578Z" fill="var(--fill-0, #DFE4E6)"/>
</g>
</svg>
