<svg preserveAspectRatio="none" width="100%" height="100%" overflow="visible" style="display: block;" viewBox="0 0 254.196 306.239" fill="none" xmlns="http://www.w3.org/2000/svg">
<g id="undraw_certificate_71gt 1" clip-path="url(#clip0_0_41)">
<path id="Vector" d="M1.81725 146.47C2.75125 148.03 4.01591 149.366 5.52213 150.384C7.02835 151.402 8.73951 152.078 10.5351 152.363C12.3306 152.649 14.1669 152.537 15.9146 152.036C17.6622 151.535 19.2788 150.656 20.6503 149.463L58.9867 171.45L57.5579 148.529L21.3721 131.164C19.2145 128.992 16.3354 127.688 13.2803 127.498C10.2252 127.308 7.20651 128.245 4.79612 130.131C2.38573 132.018 0.75115 134.723 0.202126 137.735C-0.346897 140.746 0.227777 143.854 1.81725 146.47Z" fill="var(--fill-0, #FEB3B3)"/>
<path id="Vector_2" d="M112.805 234.551C101.433 250.467 101.84 277.095 105.012 306.239H158.779L161.116 300.785L164.233 306.239H214.883C214.883 306.239 210.987 232.213 203.974 229.875C196.961 227.538 112.805 234.551 112.805 234.551Z" fill="var(--fill-0, #2C2244)"/>
<path id="Vector_3" d="M158.779 68.2587C173.841 68.2587 186.052 56.0483 186.052 40.986C186.052 25.9236 173.841 13.7132 158.779 13.7132C143.716 13.7132 131.506 25.9236 131.506 40.986C131.506 56.0483 143.716 68.2587 158.779 68.2587Z" fill="var(--fill-0, #FEB3B3)"/>
<path id="Vector_4" d="M178.491 75.3346L183.824 85.5569L220.713 102.001L211.016 195.839L206.935 205.557L209.14 213.996L203.824 220.224C209.16 225.052 209.838 230.106 206.935 235.335L189.948 239.226C189.948 239.226 95.4937 247.625 103.454 232.992C112.152 217.004 114.366 169.785 95.1655 144.553C78.8644 123.131 91.3794 95.3346 91.3794 95.3346L130.046 83.7791L144.268 75.3346L178.491 75.3346Z" fill="var(--fill-0, #2C2244)"/>
<path id="Vector_5" d="M170.887 1.03561C171.015 0.764447 171.221 0.53778 171.479 0.384718C171.737 0.231657 172.035 0.159188 172.334 0.176622C159.848 -0.570253 146.697 0.885024 136.251 7.76565C133.72 9.4326 131.334 11.4209 128.58 12.6301C128.45 12.6885 128.338 12.7796 128.253 12.8944C128.169 13.0092 128.116 13.1438 128.099 13.2853C128.082 13.4268 128.102 13.5703 128.156 13.7018C128.211 13.8333 128.299 13.9484 128.412 14.0359L128.714 14.2731C128.833 14.3667 128.925 14.4912 128.978 14.6331C129.032 14.775 129.045 14.9288 129.018 15.0779C128.99 15.227 128.922 15.3656 128.82 15.4786C128.719 15.5917 128.589 15.6748 128.444 15.719C128.293 15.7651 128.158 15.8535 128.055 15.9737C127.953 16.0939 127.886 16.2409 127.865 16.3975C127.843 16.554 127.866 16.7136 127.932 16.8574C127.998 17.0011 128.103 17.1231 128.236 17.2089L130.554 18.707C130.67 18.7811 130.767 18.8834 130.834 19.0044C130.901 19.1254 130.936 19.2612 130.937 19.3995C130.938 19.5378 130.904 19.6741 130.838 19.7958C130.772 19.9175 130.677 20.0208 130.561 20.0962C130.365 20.2175 130.159 20.322 129.945 20.4087C129.812 20.4587 129.694 20.5421 129.602 20.6509C129.511 20.7598 129.449 20.8903 129.423 21.03C129.396 21.1697 129.406 21.3138 129.452 21.4484C129.498 21.5831 129.577 21.7037 129.683 21.7987C130.686 22.6923 131.456 23.8179 131.925 25.0772C132.698 27.086 132.837 29.2738 132.967 31.422C133.766 28.3223 137.148 26.4977 140.344 26.3123C143.539 26.1269 146.656 27.1812 149.766 27.9392C156.539 29.5852 163.574 29.8558 170.454 28.735C168.118 33.4233 170.088 39.0155 172.071 43.8638L178.49 41.1124C187.306 36.136 181.166 57.187 177.87 60.0769C184.599 62.41 202.213 36.5153 196.547 26.6928C193.599 21.5832 195.691 14.9932 189.897 10.1472C187.056 7.15736 181.386 8.48624 178.49 6.00133C177.351 5.0233 179.088 2.40674 177.522 1.83651C177.002 1.64711 170.973 0.844722 170.887 1.03561Z" fill="var(--fill-0, #AE5B67)"/>
<path id="Vector_6" d="M124.691 86.419C119.686 108.637 106.851 160.512 93.8283 171.361C93.0024 172.141 92.0122 172.726 90.9305 173.072C45.1572 184.224 30.4905 155.779 30.4905 155.779C30.4905 155.779 42.7572 149.801 43.0683 138.117L67.8061 145.792L89.3705 97.2635L92.5438 94.3035L92.5616 94.2857L124.691 86.419Z" fill="var(--fill-0, #2C2244)"/>
<path id="Vector_7" d="M222.287 291.589C223.597 290.329 224.616 288.797 225.27 287.101C225.925 285.405 226.2 283.586 226.075 281.772C225.951 279.958 225.43 278.194 224.55 276.603C223.67 275.012 222.451 273.634 220.981 272.565L233.813 230.274L211.796 236.806L202.986 275.964C201.353 278.554 200.728 281.652 201.227 284.672C201.727 287.692 203.317 290.424 205.696 292.35C208.075 294.276 211.078 295.262 214.136 295.122C217.194 294.982 220.094 293.725 222.287 291.589Z" fill="var(--fill-0, #FEB3B3)"/>
<path id="Vector_8" d="M210.542 99.6354L220.713 102.001C220.713 102.001 262.75 183.791 252.62 199.376C242.49 214.96 230.08 266.556 230.08 266.556C230.08 266.556 211.726 262.908 204.713 253.557L217.555 192.363L204.308 140.934L210.542 99.6354Z" fill="var(--fill-0, #2C2244)"/>
<path id="Vector_9" d="M17.5909 221.091L17.9561 89.3631C17.9665 86.6969 19.0341 84.1438 20.9246 82.2637C22.8151 80.3837 25.3741 79.3303 28.0403 79.3347L127.524 79.6105C130.191 79.6209 132.744 80.6885 134.624 82.579C136.504 84.4695 137.557 87.0285 137.553 89.6947L137.188 221.423C137.177 224.089 136.11 226.642 134.219 228.522C132.329 230.402 129.77 231.456 127.103 231.451L27.6193 231.176C24.9532 231.165 22.4 230.098 20.52 228.207C18.6399 226.317 17.5865 223.758 17.5909 221.091Z" fill="var(--fill-0, #DFE4E6)"/>
<path id="Vector_10" d="M25.3323 181.325L25.567 96.6382C25.5767 94.1412 26.5765 91.7501 28.3471 89.9894C30.1176 88.2286 32.5142 87.2421 35.0112 87.2463L120.509 87.4833C123.006 87.493 125.398 88.4927 127.158 90.2633C128.919 92.0338 129.906 94.4304 129.902 96.9275L129.577 214.148C129.567 216.645 128.567 219.036 126.797 220.797C125.026 222.557 122.629 223.544 120.132 223.54L67.1679 223.393C56.0455 223.349 45.3944 218.896 37.5515 211.01C29.7085 203.123 25.314 192.448 25.3323 181.325Z" fill="var(--fill-0, white)"/>
<path id="Vector_11" d="M110.713 124.446H44.0461C42.9852 124.446 41.9678 124.024 41.2176 123.274C40.4675 122.524 40.0461 121.507 40.0461 120.446C40.0461 119.385 40.4675 118.367 41.2176 117.617C41.9678 116.867 42.9852 116.446 44.0461 116.446H110.713C111.774 116.446 112.791 116.867 113.541 117.617C114.291 118.367 114.713 119.385 114.713 120.446C114.713 121.507 114.291 122.524 113.541 123.274C112.791 124.024 111.774 124.446 110.713 124.446Z" fill="var(--fill-0, #0276B1)"/>
<path id="Vector_12" d="M58.7127 106.001H44.0461C42.9852 106.001 41.9678 105.58 41.2176 104.83C40.4675 104.08 40.0461 103.062 40.0461 102.001C40.0461 100.94 40.4675 99.923 41.2176 99.1729C41.9678 98.4227 42.9852 98.0013 44.0461 98.0013H58.7127C59.7736 98.0013 60.791 98.4227 61.5412 99.1729C62.2913 99.923 62.7127 100.94 62.7127 102.001C62.7127 103.062 62.2913 104.08 61.5412 104.83C60.791 105.58 59.7736 106.001 58.7127 106.001Z" fill="var(--fill-0, #0276B1)"/>
<path id="Vector_13" d="M110.713 142.89H44.0461C42.9852 142.89 41.9678 142.469 41.2176 141.719C40.4675 140.968 40.0461 139.951 40.0461 138.89C40.0461 137.829 40.4675 136.812 41.2176 136.062C41.9678 135.312 42.9852 134.89 44.0461 134.89H110.713C111.774 134.89 112.791 135.312 113.541 136.062C114.291 136.812 114.713 137.829 114.713 138.89C114.713 139.951 114.291 140.968 113.541 141.719C112.791 142.469 111.774 142.89 110.713 142.89Z" fill="var(--fill-0, #0276B1)"/>
<path id="Vector_14" d="M110.713 161.335H44.0461C42.9852 161.335 41.9678 160.913 41.2176 160.163C40.4675 159.413 40.0461 158.396 40.0461 157.335C40.0461 156.274 40.4675 155.256 41.2176 154.506C41.9678 153.756 42.9852 153.335 44.0461 153.335H110.713C111.774 153.335 112.791 153.756 113.541 154.506C114.291 155.256 114.713 156.274 114.713 157.335C114.713 158.396 114.291 159.413 113.541 160.163C112.791 160.913 111.774 161.335 110.713 161.335Z" fill="var(--fill-0, #0276B1)"/>
<path id="Vector_15" d="M105.318 209.935C114.109 209.935 121.234 202.809 121.234 194.019C121.234 185.229 114.109 178.103 105.318 178.103C96.5283 178.103 89.4025 185.229 89.4025 194.019C89.4025 202.809 96.5283 209.935 105.318 209.935Z" fill="var(--fill-0, #0276B1)"/>
<path id="Vector_16" d="M103.147 202.302C102.872 202.302 102.601 202.238 102.355 202.116C102.11 201.993 101.896 201.814 101.731 201.594L97.3889 195.805C97.249 195.619 97.1472 195.407 97.0893 195.182C97.0313 194.956 97.0184 194.722 97.0512 194.491C97.0839 194.261 97.1618 194.039 97.2803 193.839C97.3988 193.639 97.5555 193.464 97.7417 193.324C97.9278 193.185 98.1397 193.083 98.3651 193.025C98.5905 192.968 98.8251 192.955 99.0554 192.988C99.2857 193.021 99.5073 193.099 99.7073 193.218C99.9074 193.337 100.082 193.494 100.222 193.68L103.062 197.468L110.358 186.523C110.487 186.329 110.653 186.162 110.846 186.032C111.039 185.902 111.256 185.811 111.485 185.765C111.713 185.719 111.948 185.719 112.177 185.764C112.405 185.809 112.623 185.899 112.817 186.028C113.011 186.157 113.177 186.323 113.306 186.517C113.436 186.711 113.526 186.928 113.571 187.156C113.617 187.385 113.616 187.62 113.571 187.849C113.525 188.077 113.435 188.294 113.305 188.488L104.62 201.514C104.463 201.75 104.252 201.944 104.004 202.081C103.757 202.218 103.479 202.294 103.196 202.302C103.18 202.302 103.164 202.302 103.147 202.302Z" fill="var(--fill-0, white)"/>
</g>
<defs>
<clipPath id="clip0_0_41">
<rect width="254.196" height="306.239" fill="white"/>
</clipPath>
</defs>
</svg>
