<svg preserveAspectRatio="none" width="100%" height="100%" overflow="visible" style="display: block;" viewBox="0 0 240 195" fill="none" xmlns="http://www.w3.org/2000/svg">
<g id="undraw_mailbox_e7nc 1" clip-path="url(#clip0_0_31)">
<path id="Vector" d="M78.9539 192.371C83.2668 188.731 85.8864 182.982 85.1994 177.385C84.5124 171.788 80.2573 166.643 74.7378 165.455C69.2183 164.266 62.9265 167.556 61.25 172.941C60.3274 162.56 59.2642 151.743 53.7375 142.903C48.7333 134.898 40.0658 129.17 30.6722 128.146C21.2787 127.121 11.3884 130.991 5.52998 138.395C-0.328452 145.8 -1.76286 156.564 2.34023 165.065C5.36284 171.327 10.9315 175.987 16.7662 179.779C35.6199 191.927 58.2325 196.868 80.4434 193.691" fill="var(--fill-0, #D0C8E5)"/>
<path id="Vector_2" d="M14.8191 131.206C22.57 137.51 29.6806 144.562 36.0481 152.258C46.0132 164.261 54.0771 177.718 59.9588 192.161C60.3893 193.215 58.6761 193.674 58.2503 192.632C54.51 183.5 49.8825 174.756 44.4342 166.526C35.9381 153.669 25.5293 142.181 13.5663 132.457C12.6818 131.738 13.9419 130.492 14.8191 131.206Z" fill="var(--fill-0, #DFE4E6)"/>
<path id="Vector_3" d="M94.7309 68.4129C102.71 68.4129 109.178 61.9536 109.178 53.9857C109.178 46.0178 102.71 39.5585 94.7309 39.5585C86.7523 39.5585 80.2843 46.0178 80.2843 53.9857C80.2843 61.9536 86.7523 68.4129 94.7309 68.4129Z" fill="var(--fill-0, #F5F6F7)"/>
<path id="Vector_4" d="M69.3329 192.673V110.066H93.5659V192.673C93.5653 193.228 93.3441 193.761 92.951 194.153C92.5578 194.546 92.0248 194.767 91.4688 194.767H71.43C70.874 194.767 70.3409 194.546 69.9478 194.153C69.5547 193.761 69.3335 193.228 69.3329 192.673Z" fill="var(--fill-0, #2C2244)"/>
<path id="Vector_5" d="M148.756 1.43079V110.264H8.5183C8.03273 110.263 7.56652 110.07 7.22338 109.728C6.88049 109.385 6.68793 108.921 6.68725 108.437V41.2648L6.70092 40.2765C6.9655 30.0741 11.1393 20.346 18.3835 13.1115C25.6278 5.877 35.3691 1.70872 45.5857 1.44446L46.5759 1.43079H148.756Z" fill="var(--fill-0, white)" stroke="var(--stroke-0, #2C2244)"/>
<path id="Vector_6" d="M44.8651 1.33562H142.667V6.88359H57.3503C52.334 6.88357 47.3669 7.908 42.7324 9.89836C38.098 11.8887 33.887 14.806 30.34 18.4838C26.7929 22.1615 23.9792 26.5276 22.0596 31.3327C20.1399 36.1379 19.1519 41.2881 19.1519 46.4891V109.521H8.45027C7.97723 109.521 7.52357 109.326 7.18908 108.979C6.8546 108.632 6.66668 108.162 6.66667 107.671V40.9412C6.66666 35.7401 7.65469 30.5899 9.57434 25.7848C11.494 20.9796 14.3077 16.6135 17.8547 12.9358C21.4018 9.25807 25.6127 6.34074 30.2472 4.35038C34.8816 2.36002 39.8488 1.3356 44.8651 1.33562Z" fill="var(--fill-0, #F5F6F7)"/>
<path id="Vector_7" d="M148.756 1.43079V110.264H8.51831C8.03274 110.263 7.56653 110.07 7.22339 109.728C6.8805 109.385 6.68794 108.921 6.68726 108.437V41.2648L6.70093 40.2765C6.9655 30.0741 11.1393 20.346 18.3835 13.1115C25.6278 5.877 35.3691 1.70873 45.5857 1.44446L46.5759 1.43079H148.756Z" stroke="var(--stroke-0, #2C2244)"/>
<path id="Vector_8" d="M152.983 1.39451e-06C160.014 -0.0147109 166.762 2.76017 171.743 7.71421C176.725 12.6682 179.532 19.3956 179.546 26.4164V102.885H231.741C233.837 102.881 235.85 103.708 237.336 105.186C238.821 106.663 239.659 108.67 239.663 110.764H126.42V26.4164C126.435 19.3956 129.242 12.6682 134.223 7.71421C139.205 2.76017 145.953 -0.0147109 152.983 1.39451e-06Z" fill="var(--fill-0, #2C2244)"/>
<path id="Vector_9" d="M94.7309 56.3126C96.5326 56.3126 97.9931 54.8541 97.9931 53.0549C97.9931 51.2557 96.5326 49.7971 94.7309 49.7971C92.9293 49.7971 91.4688 51.2557 91.4688 53.0549C91.4688 54.8541 92.9293 56.3126 94.7309 56.3126Z" fill="var(--fill-0, #DFE4E6)"/>
<path id="Vector_10" d="M86.6796 53.0549C86.6821 50.8339 87.5667 48.7046 89.1393 47.1342C90.7119 45.5637 92.844 44.6803 95.068 44.6778L155.184 44.6778C155.555 44.6774 155.911 44.5302 156.173 44.2684C156.435 44.0067 156.582 43.6518 156.583 43.2816L156.583 10.7041C156.583 10.0871 156.829 9.49568 157.266 9.05944C157.703 8.62321 158.295 8.3778 158.913 8.37709L180.816 8.37709C181.433 8.37781 182.026 8.62321 182.462 9.05945C182.899 9.49568 183.145 10.0871 183.146 10.7041L183.146 59.105C183.145 59.722 182.899 60.3134 182.462 60.7496C182.026 61.1859 181.433 61.4313 180.816 61.432L95.068 61.432C92.844 61.4295 90.7119 60.5461 89.1393 58.9756C87.5667 57.4052 86.6821 55.2759 86.6796 53.0549Z" fill="var(--fill-0, #0276B1)"/>
<path id="Vector_11" d="M196.64 195H59.3603C59.2648 195 59.1731 194.895 59.1055 194.707C59.038 194.52 59 194.265 59 194C59 193.735 59.038 193.48 59.1055 193.293C59.1731 193.105 59.2648 193 59.3603 193H196.64C196.735 193 196.827 193.105 196.894 193.293C196.962 193.48 197 193.735 197 194C197 194.265 196.962 194.52 196.894 194.707C196.827 194.895 196.735 195 196.64 195Z" fill="var(--fill-0, #DFE4E6)"/>
</g>
<defs>
<clipPath id="clip0_0_31">
<rect width="240" height="195" fill="white"/>
</clipPath>
</defs>
</svg>
