<svg preserveAspectRatio="none" width="100%" height="100%" overflow="visible" style="display: block;" viewBox="0 0 538 360" fill="none" xmlns="http://www.w3.org/2000/svg">
<g id="undraw_meditation_vje0" clip-path="url(#clip0_0_96)">
<path id="Path 164" d="M252.823 341.53C252.823 341.53 259.67 330.289 268.461 336.935C277.252 343.582 293.533 354.797 293.533 354.797C293.533 354.797 296.867 361.97 288.237 359.275C279.606 356.581 251.432 352.245 251.432 352.245L252.823 341.53Z" fill="var(--fill-0, #FEB3B3)"/>
<path id="Vector" d="M61.4642 270.139C63.6463 252.581 74.5205 235.281 91.2543 229.568C84.655 247.639 84.6564 267.465 91.2584 285.536C93.8297 292.496 97.4139 299.969 94.9952 306.983C93.4903 311.348 89.8089 314.688 85.6937 316.776C81.5783 318.864 77.011 319.859 72.5009 320.834L71.6133 321.569C64.4536 305.391 59.2822 287.696 61.4642 270.139Z" fill="var(--fill-0, #D0C8E5)"/>
<path id="Vector_2" d="M91.4204 229.899C81.6754 240.826 75.6186 254.547 74.1103 269.113C73.73 272.244 73.8451 275.414 74.4514 278.508C75.1393 281.504 76.6163 284.26 78.7287 286.49C80.6566 288.61 82.8739 290.555 84.2534 293.106C84.9401 294.423 85.3409 295.87 85.4296 297.352C85.5182 298.835 85.2927 300.319 84.7678 301.709C83.5499 305.204 81.1495 308.053 78.7054 310.758C75.9917 313.76 73.1254 316.836 71.9718 320.817C71.832 321.3 71.0923 321.055 71.2318 320.573C73.2388 313.647 79.9579 309.712 83.1622 303.474C84.6574 300.563 85.285 297.184 83.8833 294.111C82.6576 291.424 80.3728 289.417 78.4022 287.287C76.3096 285.141 74.7739 282.515 73.9293 279.639C73.1675 276.585 72.9305 273.424 73.2285 270.291C73.7869 263.227 75.4518 256.295 78.1622 249.749C81.2142 242.26 85.5238 235.349 90.9047 229.315C91.2379 228.941 91.7514 229.529 91.4204 229.899Z" fill="var(--fill-0, #DFE4E6)"/>
<path id="Vector_3" d="M74.3201 264.394C71.912 263.809 69.7902 262.387 68.3336 260.381C66.8769 258.375 66.1802 255.916 66.368 253.444C66.4077 252.944 67.1862 252.982 67.1465 253.483C66.9674 255.785 67.6166 258.075 68.9768 259.94C70.3371 261.805 72.3189 263.122 74.5644 263.654C75.0522 263.77 74.8051 264.51 74.3201 264.394Z" fill="var(--fill-0, #DFE4E6)"/>
<path id="Vector_4" d="M77.6098 285.545C81.959 282.946 85.1696 278.803 86.6014 273.94C86.7429 273.459 87.4827 273.704 87.3414 274.185C85.842 279.242 82.4921 283.547 77.9603 286.241C77.5281 286.498 77.18 285.8 77.6098 285.545Z" fill="var(--fill-0, #DFE4E6)"/>
<path id="Vector_5" d="M81.9372 242.999C82.8218 243.419 83.7969 243.614 84.775 243.564C85.7531 243.514 86.7036 243.222 87.5411 242.714C87.9697 242.452 88.3174 243.15 87.8916 243.411C86.9637 243.968 85.9136 244.289 84.833 244.346C83.7525 244.403 82.6744 244.195 81.6928 243.739C81.5967 243.704 81.5176 243.633 81.4716 243.542C81.4256 243.451 81.4161 243.345 81.445 243.247C81.4779 243.149 81.548 243.068 81.6401 243.021C81.7323 242.975 81.8391 242.967 81.9372 242.999Z" fill="var(--fill-0, #DFE4E6)"/>
<path id="Vector_6" d="M142.261 260.928C141.998 261.099 141.735 261.27 141.472 261.448C137.948 263.767 134.618 266.368 131.515 269.227C131.271 269.444 131.028 269.668 130.791 269.892C123.388 276.858 117.342 285.14 112.961 294.315C111.221 297.968 109.761 301.748 108.594 305.622C106.982 310.973 105.66 316.902 102.47 321.279C102.143 321.739 101.787 322.179 101.405 322.595H72.5778C72.5122 322.562 72.4464 322.536 72.3806 322.503L71.2296 322.556C71.2758 322.352 71.3282 322.141 71.3744 321.937C71.4007 321.819 71.4335 321.7 71.4599 321.582C71.4794 321.503 71.4994 321.424 71.5125 321.351C71.5189 321.325 71.5257 321.299 71.5321 321.279C71.5453 321.206 71.5652 321.141 71.5784 321.075C71.8677 319.897 72.1658 318.719 72.4727 317.541C72.4727 317.534 72.4727 317.534 72.4792 317.528C74.8405 308.557 77.971 299.705 82.3447 291.61C82.4764 291.367 82.6077 291.117 82.7525 290.873C84.7442 287.235 87.0297 283.766 89.5861 280.501C90.9917 278.717 92.4866 277.006 94.0651 275.374C98.1518 271.164 102.875 267.624 108.061 264.883C118.4 259.421 130.37 257.328 141.42 260.665C141.702 260.75 141.979 260.836 142.261 260.928Z" fill="var(--fill-0, #D0C8E5)"/>
<path id="Vector_7" d="M142.197 261.294C127.842 264.147 114.75 271.453 104.781 282.175C102.594 284.446 100.779 287.046 99.4011 289.882C98.1483 292.688 97.6693 295.779 98.0137 298.832C98.2778 301.686 98.8781 304.575 98.4443 307.443C98.2004 308.908 97.6498 310.305 96.8286 311.542C96.0075 312.779 94.9342 313.829 93.6793 314.622C90.6038 316.679 86.973 317.507 83.3943 318.194C79.4207 318.957 75.2814 319.686 71.9651 322.17C71.5633 322.471 71.1202 321.829 71.5214 321.529C77.2912 317.208 85.0231 318.114 91.3351 315.064C94.2803 313.641 96.8148 311.32 97.5444 308.022C98.1824 305.139 97.5659 302.159 97.2736 299.272C96.8939 296.298 97.2478 293.276 98.3043 290.47C99.5331 287.573 101.246 284.907 103.369 282.585C108.065 277.281 113.565 272.749 119.668 269.155C126.61 265.014 134.21 262.093 142.137 260.516C142.627 260.419 142.684 261.197 142.197 261.294Z" fill="var(--fill-0, #DFE4E6)"/>
<path id="Vector_8" d="M107.788 278.534C106.218 276.616 105.379 274.202 105.423 271.723C105.467 269.243 106.39 266.861 108.028 265C108.36 264.624 108.959 265.124 108.626 265.5C107.098 267.23 106.238 269.45 106.202 271.758C106.166 274.067 106.956 276.313 108.429 278.09C108.749 278.476 108.106 278.918 107.788 278.534Z" fill="var(--fill-0, #DFE4E6)"/>
<path id="Vector_9" d="M97.6894 297.403C102.726 297.948 107.782 296.574 111.851 293.555C112.254 293.255 112.697 293.897 112.294 294.196C108.055 297.33 102.79 298.749 97.5502 298.17C97.0509 298.115 97.1928 297.348 97.6894 297.403Z" fill="var(--fill-0, #DFE4E6)"/>
<path id="Vector_10" d="M126.743 266.04C127.196 266.909 127.858 267.651 128.669 268.201C129.48 268.75 130.415 269.09 131.389 269.189C131.889 269.238 131.746 270.005 131.25 269.956C130.174 269.842 129.142 269.465 128.245 268.86C127.348 268.255 126.612 267.439 126.103 266.484C126.047 266.398 126.026 266.294 126.045 266.193C126.063 266.092 126.119 266.002 126.201 265.941C126.286 265.883 126.391 265.86 126.492 265.879C126.594 265.897 126.684 265.955 126.743 266.04Z" fill="var(--fill-0, #DFE4E6)"/>
<path id="Vector_11" d="M485.902 241.967C482.548 214.98 465.834 188.39 440.114 179.607C450.257 207.385 450.255 237.857 440.107 265.633C436.155 276.331 430.646 287.817 434.364 298.599C436.677 305.308 442.335 310.441 448.661 313.65C454.986 316.859 462.006 318.389 468.938 319.888L470.303 321.017C481.308 296.151 489.256 268.954 485.902 241.967Z" fill="var(--fill-0, #D0C8E5)"/>
<path id="Vector_12" d="M439.858 180.118C454.837 196.912 464.146 218.001 466.465 240.391C466.932 245.191 466.989 250.101 465.941 254.832C464.883 259.435 462.613 263.672 459.366 267.101C456.403 270.358 452.995 273.347 450.874 277.269C448.64 281.403 448.554 286.1 450.084 290.492C451.956 295.864 455.645 300.243 459.402 304.4C463.573 309.016 467.979 313.744 469.752 319.863C469.967 320.604 471.104 320.227 470.889 319.487C467.804 308.841 457.477 302.794 452.551 293.205C450.253 288.731 449.289 283.537 451.443 278.814C453.327 274.683 456.839 271.598 459.868 268.325C463.048 264.889 465.487 261.119 466.743 256.569C468.028 251.915 468.163 246.992 467.82 242.202C466.962 231.344 464.403 220.689 460.237 210.627C455.546 199.116 448.922 188.494 440.651 179.219C440.139 178.645 439.35 179.547 439.858 180.118Z" fill="var(--fill-0, #DFE4E6)"/>
<path id="Vector_13" d="M466.142 233.138C469.844 232.239 473.105 230.052 475.344 226.969C477.583 223.886 478.654 220.106 478.365 216.306C478.304 215.537 477.107 215.596 477.168 216.366C477.444 219.904 476.446 223.425 474.355 226.291C472.264 229.158 469.218 231.183 465.767 232C465.017 232.178 465.397 233.315 466.142 233.138Z" fill="var(--fill-0, #DFE4E6)"/>
<path id="Vector_14" d="M461.086 265.647C454.401 261.653 449.466 255.284 447.265 247.811C447.048 247.07 445.911 247.447 446.128 248.186C448.433 255.959 453.582 262.576 460.547 266.717C461.211 267.111 461.747 266.039 461.086 265.647Z" fill="var(--fill-0, #DFE4E6)"/>
<path id="Vector_15" d="M454.434 200.252C453.075 200.898 451.576 201.197 450.073 201.12C448.569 201.044 447.108 200.595 445.821 199.814C445.162 199.412 444.628 200.485 445.282 200.885C446.708 201.741 448.323 202.235 449.983 202.323C451.644 202.411 453.301 202.09 454.81 201.39C454.958 201.336 455.079 201.227 455.15 201.087C455.221 200.946 455.235 200.784 455.191 200.633C455.14 200.482 455.033 200.358 454.891 200.287C454.749 200.215 454.585 200.203 454.434 200.252Z" fill="var(--fill-0, #DFE4E6)"/>
<path id="Vector_16" d="M361.713 227.81C362.118 228.073 362.522 228.336 362.927 228.609C368.343 232.173 373.462 236.172 378.232 240.566C378.606 240.9 378.98 241.244 379.344 241.587C390.722 252.296 400.015 265.025 406.75 279.127C409.424 284.742 411.668 290.551 413.462 296.506C415.939 304.731 417.971 313.845 422.874 320.572C423.378 321.28 423.925 321.955 424.512 322.595H468.82C468.921 322.545 469.022 322.504 469.123 322.454L470.893 322.535C470.821 322.221 470.741 321.897 470.67 321.584C470.629 321.402 470.579 321.219 470.539 321.037C470.509 320.916 470.478 320.794 470.458 320.683C470.448 320.643 470.437 320.602 470.428 320.572C470.407 320.461 470.377 320.36 470.356 320.258C469.912 318.448 469.454 316.637 468.982 314.826C468.982 314.816 468.982 314.816 468.972 314.806C465.342 301.018 460.531 287.412 453.808 274.97C453.606 274.595 453.404 274.211 453.181 273.837C450.12 268.245 446.607 262.913 442.678 257.894C440.517 255.153 438.219 252.523 435.793 250.014C429.512 243.544 422.252 238.102 414.281 233.889C398.389 225.493 379.991 222.276 363.007 227.405C362.573 227.537 362.148 227.668 361.713 227.81Z" fill="var(--fill-0, #D0C8E5)"/>
<path id="Vector_17" d="M361.813 228.372C383.877 232.757 403.999 243.988 419.322 260.468C422.583 264.019 425.582 267.905 427.592 272.314C429.517 276.627 430.253 281.377 429.724 286.071C429.318 290.457 428.395 294.897 429.062 299.306C429.765 303.953 432.523 307.755 436.386 310.339C441.113 313.501 446.694 314.775 452.195 315.831C458.302 317.003 464.665 318.124 469.762 321.941C470.38 322.404 471.061 321.418 470.444 320.956C461.576 314.314 449.691 315.708 439.989 311.019C435.462 308.831 431.567 305.265 430.445 300.196C429.465 295.763 430.412 291.184 430.862 286.746C431.333 282.086 431.012 277.607 429.277 273.217C427.503 268.727 424.649 264.716 421.493 261.097C414.275 252.945 405.821 245.979 396.44 240.455C385.769 234.091 374.089 229.6 361.905 227.177C361.151 227.027 361.064 228.224 361.813 228.372Z" fill="var(--fill-0, #DFE4E6)"/>
<path id="Vector_18" d="M414.7 254.871C417.114 251.923 418.403 248.212 418.335 244.402C418.268 240.591 416.849 236.928 414.332 234.068C413.821 233.491 412.901 234.259 413.413 234.837C415.761 237.496 417.083 240.908 417.138 244.457C417.194 248.005 415.98 251.457 413.715 254.188C413.224 254.783 414.212 255.462 414.7 254.871Z" fill="var(--fill-0, #DFE4E6)"/>
<path id="Vector_19" d="M430.223 283.874C422.482 284.712 414.71 282.6 408.456 277.959C407.837 277.499 407.155 278.485 407.774 278.944C414.291 283.762 422.383 285.943 430.437 285.053C431.204 284.968 430.986 283.789 430.223 283.874Z" fill="var(--fill-0, #DFE4E6)"/>
<path id="Vector_20" d="M385.565 235.667C384.869 237.002 383.852 238.143 382.605 238.988C381.359 239.833 379.922 240.355 378.425 240.507C377.657 240.582 377.875 241.761 378.639 241.686C380.293 241.511 381.878 240.932 383.257 240.002C384.637 239.072 385.767 237.818 386.55 236.349C386.635 236.217 386.667 236.057 386.639 235.902C386.611 235.747 386.525 235.609 386.399 235.515C386.268 235.426 386.107 235.391 385.951 235.42C385.795 235.448 385.656 235.537 385.565 235.667Z" fill="var(--fill-0, #DFE4E6)"/>
<path id="Vector_21" d="M537.557 323.253H0.657702C0.483268 323.253 0.315979 323.184 0.192636 323.061C0.0692929 322.937 0 322.77 0 322.595C0 322.421 0.0692929 322.253 0.192636 322.13C0.315979 322.006 0.483268 321.937 0.657702 321.937H537.342C537.517 321.937 537.684 322.006 537.807 322.13C537.931 322.253 538 322.421 538 322.595C538 322.959 537.92 323.253 537.557 323.253Z" fill="var(--fill-0, #DFE4E6)"/>
<path id="Path 161" d="M219.185 355.502C211.817 355.502 205.072 354.796 199.713 353.126C193.343 351.141 189.344 347.931 187.824 343.579C187.11 341.731 186.897 339.727 187.206 337.77C187.515 335.813 188.336 333.972 189.585 332.435C199.008 320.148 231.708 316.683 236.096 316.273L244.997 299.407C245.567 295.383 242.872 292.336 247.528 292.26L302.6 291.512C307.173 291.416 305.875 294.249 306.658 298.173L315.049 313.161L278.937 328.412L284.396 341.725L284.04 341.932C273.471 348.067 243.077 355.501 219.185 355.502Z" fill="var(--fill-0, #2C2244)"/>
<path id="Path 162" d="M310.049 313.801C310.049 313.801 360.482 308.026 357.193 331.127C353.904 354.228 315.531 370.591 257.424 331.127L264.002 319.576C264.002 319.576 285.655 318.498 298.812 312.723L310.049 313.801Z" fill="var(--fill-0, #2C2244)"/>
<path id="Path 166" d="M238.649 209.144C238.649 209.144 229.064 207.4 226.45 222.224C223.836 237.047 219.648 272.161 219.648 272.161L206.646 317.265C205.112 318.08 203.842 319.314 202.984 320.824C202.125 322.334 201.713 324.058 201.797 325.793C201.881 327.528 202.456 329.204 203.456 330.624C204.456 332.045 205.839 333.151 207.443 333.814C209.048 334.478 210.808 334.67 212.518 334.37C214.228 334.069 215.818 333.288 217.101 332.118C218.384 330.947 219.307 329.436 219.764 327.759C220.22 326.083 220.191 324.312 219.679 322.651L237.076 274.78L240.392 233.563V211.966C240.392 211.38 240.229 210.806 239.921 210.307C239.614 209.809 239.173 209.406 238.649 209.144Z" fill="var(--fill-0, #FEB3B3)"/>
<path id="Path 166_2" d="M306.119 209.144C306.119 209.144 315.705 207.4 318.319 222.224C320.933 237.047 325.121 272.161 325.121 272.161L338.123 317.265C339.656 318.08 340.927 319.314 341.785 320.824C342.644 322.334 343.055 324.058 342.972 325.793C342.888 327.528 342.313 329.204 341.313 330.624C340.313 332.045 338.93 333.151 337.325 333.814C335.721 334.478 333.96 334.67 332.25 334.37C330.54 334.069 328.951 333.288 327.668 332.118C326.385 330.947 325.461 329.436 325.005 327.759C324.548 326.083 324.578 324.312 325.09 322.651L307.693 274.78L304.376 233.563V211.966C304.376 211.38 304.539 210.806 304.847 210.307C305.155 209.809 305.596 209.406 306.119 209.144Z" fill="var(--fill-0, #FEB3B3)"/>
<path id="Vector_22" d="M305.389 196.891L287.258 190.106L252.115 189.652L236.988 196.891L241.236 221.325C241.236 221.325 232.658 235.86 242.103 250.397L244.222 302.193C244.222 302.193 278.105 321.854 306.704 298.244L300.24 250.086C300.24 250.086 311.052 227.742 302.671 219.441L305.389 196.891Z" fill="var(--fill-0, #2C2244)"/>
<path id="Vector_23" d="M298.004 204.484L305.389 196.891C305.389 196.891 321.505 205.374 321.173 233.747L300.843 227.477L298.004 204.484Z" fill="var(--fill-0, #2C2244)"/>
<path id="Vector_24" d="M245.192 204.484L237.346 196.633C237.346 196.633 223.502 207.349 223.834 235.721L242.353 227.477L245.192 204.484Z" fill="var(--fill-0, #2C2244)"/>
<path id="Path 163" d="M296.337 335.917C296.337 335.917 290.689 324.027 281.258 329.727C271.826 335.427 254.473 344.894 254.473 344.894C254.473 344.894 250.414 351.683 259.277 349.898C268.14 348.112 296.611 346.719 296.611 346.719L296.337 335.917Z" fill="var(--fill-0, #FEB3B3)"/>
<path id="Vector_25" d="M280.647 123.367C280.727 123.29 280.81 123.221 280.889 123.142C285.935 118.092 286.958 110.928 283.173 107.141C279.596 103.561 273.008 104.284 268.035 108.635C263.771 104.573 258.053 103.441 254.352 106.245C250.085 109.479 250.118 116.716 254.427 122.409C254.722 122.799 255.032 123.168 255.35 123.522C249.616 125.623 244.665 129.435 241.167 134.443C237.67 139.451 235.794 145.414 235.794 151.524V179.903C235.794 180.735 235.958 181.559 236.276 182.328C236.594 183.096 237.061 183.795 237.649 184.383C238.237 184.972 238.935 185.439 239.703 185.757C240.472 186.076 241.295 186.239 242.127 186.239H294.543C296.166 186.239 297.722 185.594 298.87 184.446C300.018 183.297 300.663 181.739 300.663 180.115V151.524C300.662 145.332 298.734 139.293 295.147 134.248C291.56 129.202 286.492 125.399 280.647 123.367Z" fill="var(--fill-0, #2C2244)"/>
<path id="Vector_26" d="M286.644 176.118C296.358 166.398 296.358 150.639 286.644 140.919C276.931 131.2 261.182 131.2 251.469 140.92C241.755 150.639 241.755 166.398 251.468 176.118C261.182 185.838 276.931 185.838 286.644 176.118Z" fill="var(--fill-0, #FEB3B3)"/>
<path id="Vector_27" d="M242.921 142.864C248.605 146.784 255.351 148.87 262.254 148.842C259.791 150.551 256.988 151.705 254.037 152.225C263.215 154.195 272.701 154.248 281.9 152.382C283.945 152.053 285.918 151.375 287.733 150.377C288.638 149.871 289.426 149.181 290.046 148.351C290.666 147.521 291.105 146.57 291.334 145.559C291.945 142.064 289.224 138.889 286.396 136.749C282.066 133.523 277.074 131.301 271.78 130.242C266.486 129.184 261.024 129.316 255.788 130.629C252.368 131.513 248.943 133.008 246.722 135.755C244.502 138.503 243.844 142.739 245.96 145.568L242.921 142.864Z" fill="var(--fill-0, #2C2244)"/>
<g id="Vector_28">
</g>
<path id="Vector_29" d="M109.882 93.1963L110.666 92.1389L131.547 107.638C130.412 104.177 126.396 93.2058 119.811 88.8283C111.945 83.5987 106.411 85.2254 103.395 89.7667C100.38 94.308 101.026 100.044 108.892 105.274C115.56 109.707 127.439 109.09 130.904 108.8L109.882 93.1963Z" fill="var(--fill-0, #B7E4FB)"/>
<g id="Vector_30">
</g>
<path id="Vector_31" d="M424.064 8.33996L425.034 9.23006L407.457 28.3998C411.015 27.6304 422.337 24.774 427.373 18.6763C433.389 11.3915 432.348 5.71428 428.148 2.24113C423.948 -1.23202 418.18 -1.18602 412.164 6.0988C407.064 12.2738 406.441 24.1598 406.369 27.639L424.064 8.33996Z" fill="var(--fill-0, #B7E4FB)"/>
<g id="Vector_32">
</g>
<path id="Vector_33" d="M140.595 213.02L141.564 213.91L123.988 233.08C127.546 232.311 138.868 229.454 143.904 223.356C149.92 216.072 148.879 210.394 144.678 206.921C140.478 203.448 134.71 203.494 128.694 210.779C123.594 216.954 122.972 228.84 122.9 232.319L140.595 213.02Z" fill="var(--fill-0, #B7E4FB)"/>
<g id="Vector_34">
</g>
<path id="Vector_35" d="M289.22 30.3072L290.359 30.9666L277.338 53.4846C280.646 51.9639 291.084 46.7264 294.683 39.6836C298.984 31.2699 296.741 25.9521 291.89 23.4694C287.039 20.9866 281.418 22.279 277.117 30.6927C273.471 37.8247 275.43 49.5645 276.112 52.977L289.22 30.3072Z" fill="var(--fill-0, #B7E4FB)"/>
<g id="Vector_36">
</g>
<path id="Vector_37" d="M410.895 171.148L412.034 171.808L399.013 194.326C402.321 192.805 412.758 187.567 416.358 180.525C420.659 172.111 418.416 166.793 413.565 164.31C408.714 161.828 403.092 163.12 398.792 171.534C395.146 178.666 397.105 190.405 397.787 193.818L410.895 171.148Z" fill="var(--fill-0, #B7E4FB)"/>
</g>
<defs>
<clipPath id="clip0_0_96">
<rect width="538" height="360" fill="white"/>
</clipPath>
</defs>
</svg>
