<svg preserveAspectRatio="none" width="100%" height="100%" overflow="visible" style="display: block;" viewBox="0 0 166.5 180" fill="none" xmlns="http://www.w3.org/2000/svg">
<g id="undraw_completing_re_i7ap 1" clip-path="url(#clip0_0_63)">
<path id="Vector" d="M67.6631 148.914C64.7051 145.991 60.4185 144.315 55.9025 144.315L55.7283 144.315C52.7537 144.316 49.8322 143.56 47.2626 142.125L46.9952 141.975L47.2106 141.763C48.3765 140.607 49.3501 139.286 50.0972 137.847C49.5666 138.321 48.9338 138.677 48.2435 138.891C47.5532 139.105 46.8223 139.17 46.1026 139.084C45.3427 138.997 44.6133 138.746 43.9689 138.351C43.3245 137.955 42.782 137.425 42.3819 136.8C40.8036 134.346 38.9221 130.865 38.9221 128.212C38.9245 125.971 39.4145 123.754 40.3607 121.703C41.3068 119.653 42.6885 117.814 44.4176 116.303C45.5122 115.358 46.3866 114.202 46.9836 112.91C47.5807 111.619 47.887 110.222 47.8826 108.81L47.8817 108.609C47.8814 106.75 48.1186 104.897 48.5879 103.093L48.6355 102.911L48.8311 102.918C50.0927 102.959 51.3549 102.857 52.5917 102.616C51.4316 102.479 50.2967 102.19 49.2191 101.756L49.0087 101.675L49.0801 101.468C54.0036 98.5473 65.1173 100.06 71.568 85.919C76.7986 74.4528 95.2541 96.0976 95.2541 108.609C95.2541 109.885 93.9355 111.572 94.9226 112.416C105.594 121.538 98.2308 127.395 95.9094 133.288C95.3586 134.687 96.5529 136.222 96.5529 137.735C96.5529 137.991 96.546 138.256 96.5325 138.522L96.512 138.931L96.1562 138.704C95.4523 138.262 94.7999 137.75 94.21 137.175C94.8219 138.524 95.1104 139.988 95.054 141.458C94.9976 142.928 94.5979 144.367 93.8843 145.67C92.766 147.692 91.6841 149.14 90.6687 149.973C87.4159 152.64 83.2227 154.016 78.9465 153.819C74.6702 153.622 70.634 151.867 67.6631 148.914Z" fill="var(--fill-0, #D0C8E5)"/>
<path id="Vector_2" d="M86.7468 180C86.8241 180 86.8987 179.971 86.957 179.919C87.0153 179.866 87.0534 179.794 87.0643 179.715C87.078 179.616 87.2141 176.86 87.2141 170.049C86.1058 157.838 82.5467 140.249 71.8848 125.804C71.8592 125.769 71.8273 125.74 71.7908 125.718C71.7544 125.696 71.7141 125.682 71.6723 125.676C71.6305 125.67 71.588 125.673 71.5471 125.684C71.5063 125.695 71.4681 125.715 71.4345 125.741C71.4009 125.767 71.3727 125.8 71.3515 125.838C71.3303 125.876 71.3165 125.917 71.3109 125.961C71.3053 126.004 71.3079 126.048 71.3187 126.09C71.3296 126.132 71.3483 126.171 71.3739 126.206C81.9437 140.527 85.4742 157.986 86.5747 170.111C86.5747 175.291 86.4421 179.524 86.4285 179.622C86.4221 179.669 86.4255 179.717 86.4385 179.762C86.4516 179.808 86.4739 179.85 86.5041 179.886C86.5343 179.922 86.5716 179.95 86.6135 179.97C86.6553 179.99 86.7008 180 86.7468 180Z" fill="var(--fill-0, #DFE4E6)"/>
<path id="Vector_3" d="M76.9183 139.773C76.99 139.774 77.0599 139.752 77.1179 139.713C77.1759 139.673 77.2191 139.618 77.2413 139.554C77.2635 139.49 77.2635 139.421 77.2414 139.357C77.2192 139.293 77.1761 139.237 77.1181 139.197C73.9071 137.158 70.4383 135.502 66.7915 134.266C61.0942 132.309 52.4305 130.535 43.5114 133.198C43.4689 133.21 43.4294 133.231 43.3952 133.258C43.3611 133.285 43.3329 133.318 43.3124 133.355C43.2918 133.392 43.2793 133.433 43.2755 133.474C43.2717 133.516 43.2767 133.558 43.2902 133.598C43.3038 133.638 43.3256 133.675 43.3544 133.707C43.3832 133.739 43.4184 133.765 43.4581 133.784C43.4977 133.804 43.541 133.815 43.5855 133.819C43.63 133.822 43.6748 133.817 43.7173 133.805C52.4536 131.196 60.9602 132.941 66.5582 134.864C70.1463 136.079 73.5594 137.707 76.719 139.713C76.7769 139.752 76.8467 139.774 76.9183 139.773Z" fill="var(--fill-0, #DFE4E6)"/>
<path id="Vector_4" d="M90.3288 105.896C90.3341 105.828 90.316 105.761 90.2771 105.703C90.2381 105.645 90.1803 105.6 90.1119 105.575C90.0435 105.549 89.968 105.544 89.8963 105.56C89.8245 105.576 89.7603 105.613 89.7126 105.665C87.2406 108.553 85.1685 111.712 83.5439 115.07C80.9775 120.315 78.3913 128.378 80.6468 137.005C80.6575 137.046 80.6768 137.085 80.7038 137.119C80.7308 137.154 80.7649 137.183 80.8041 137.205C80.8432 137.227 80.8868 137.242 80.9322 137.248C80.9776 137.255 81.0239 137.253 81.0686 137.243C81.1133 137.233 81.1554 137.215 81.1926 137.191C81.2297 137.166 81.2612 137.134 81.2852 137.098C81.3091 137.062 81.3251 137.022 81.3323 136.98C81.3394 136.939 81.3375 136.896 81.3267 136.855C79.1176 128.404 81.66 120.488 84.1817 115.335C85.7788 112.03 87.8163 108.922 90.2473 106.08C90.295 106.028 90.3235 105.964 90.3288 105.896Z" fill="var(--fill-0, #DFE4E6)"/>
<path id="Vector_5" d="M137.492 88.2134L133.018 72.1001C132.826 71.4179 132.367 70.8365 131.738 70.4811C131.11 70.1258 130.363 70.0251 129.659 70.2008C129.295 70.2917 128.954 70.4538 128.656 70.6772C128.358 70.9006 128.11 71.1807 127.927 71.5003C127.745 71.82 127.631 72.1725 127.592 72.5365C127.554 72.9004 127.592 73.2681 127.705 73.6171L132.88 90.2164L135.588 100.432C135.194 100.725 134.902 101.129 134.751 101.589C134.601 102.049 134.6 102.543 134.749 103.003C134.897 103.464 135.188 103.869 135.581 104.164C135.974 104.458 136.451 104.627 136.947 104.649C137.442 104.67 137.933 104.543 138.351 104.284C138.77 104.025 139.097 103.646 139.287 103.2C139.477 102.755 139.521 102.262 139.413 101.791C139.306 101.32 139.052 100.892 138.686 100.566L137.492 88.2134Z" fill="var(--fill-0, #FEB3B3)"/>
<path id="Vector_6" d="M99.0261 85.5769L112.462 75.0874C113.03 74.6413 113.402 73.9865 113.498 73.2644C113.594 72.5423 113.407 71.8108 112.976 71.2277C112.753 70.926 112.472 70.6736 112.15 70.4857C111.828 70.2978 111.471 70.1785 111.102 70.1349C110.733 70.0914 110.359 70.1245 110.003 70.2324C109.647 70.3402 109.317 70.5205 109.031 70.7623L95.4045 82.0923L86.8382 88.6228C86.4143 88.3728 85.9248 88.2612 85.4362 88.3032C84.9476 88.3453 84.4836 88.5388 84.1072 88.8577C83.7309 89.1766 83.4604 89.6052 83.3326 90.0855C83.2048 90.5657 83.2257 91.0742 83.3927 91.542C83.5597 92.0097 83.8645 92.4139 84.2658 92.6997C84.6672 92.9856 85.1455 93.1391 85.6358 93.1396C86.1262 93.14 86.6048 92.9873 87.0066 92.7022C87.4084 92.4171 87.714 92.0135 87.8818 91.5461L99.0261 85.5769Z" fill="var(--fill-0, #FEB3B3)"/>
<path id="Vector_7" d="M110.899 87.5765L110.279 100.465L129.74 96.5269C128.084 91.348 126.958 90.4647 128.202 86.8605L110.899 87.5765Z" fill="var(--fill-0, #FEB3B3)"/>
<path id="Vector_8" d="M122.957 62.7906H116.356L113.521 67.4632L112.17 67.3913C111.51 67.3562 110.848 67.4512 110.227 67.6705C109.606 67.8899 109.038 68.2289 108.557 68.667C108.077 69.1051 107.694 69.6329 107.432 70.2183C107.171 70.8037 107.036 71.4343 107.036 72.0717L108.7 74.5564C108.7 74.5564 105.724 79.5529 110.011 82.011C110.011 82.011 109.246 86.6423 110.011 86.5926C110.776 86.5428 112.537 85.6002 110.776 86.5428C109.014 87.4853 109.146 87.6119 109.374 87.8314L109.601 88.0509L128.122 91.0465C128.122 91.0465 128.664 87.588 128.722 86.9711C128.781 86.3542 128.389 87.8624 128.781 86.3542C129.172 84.8461 129.759 85.4117 129.172 84.8461C128.585 84.2806 132.976 77.2741 131.172 74.5563L134.065 71.8386C134.065 69.2316 129.718 67.1183 127.012 67.1183H126.665L122.957 62.7906Z" fill="var(--fill-0, #2C2244)"/>
<path id="Vector_9" d="M107.035 173.721H104.838L103.792 164.302L107.036 164.303L107.035 173.721Z" fill="var(--fill-0, #FEB3B3)"/>
<path id="Vector_10" d="M99.4748 177.884C99.476 178.167 99.5874 178.438 99.7847 178.638C99.982 178.838 100.249 178.952 100.529 178.954H105.223L105.368 178.648L106.032 177.261L106.289 178.648L106.346 178.954H108.117L108.092 178.646L107.619 172.913L107.002 172.875L104.333 172.715L103.678 172.674V174.386C103.18 174.922 99.2767 176.947 99.4748 177.884Z" fill="var(--fill-0, #2C2244)"/>
<path id="Vector_11" d="M145.958 167.142L143.499 168.488L136.227 161.057L139.857 159.07L145.958 167.142Z" fill="var(--fill-0, #FEB3B3)"/>
<path id="Vector_12" d="M140.688 174.263C140.854 174.508 141.113 174.68 141.409 174.742C141.705 174.804 142.015 174.751 142.271 174.595L146.558 171.943L146.514 171.596L146.315 170.017L147.355 171.075L147.584 171.308L149.201 170.307L149 170.055L145.242 165.349L144.656 165.665L142.126 167.034L141.504 167.369L142.497 168.854C142.354 169.599 139.964 173.562 140.688 174.263Z" fill="var(--fill-0, #2C2244)"/>
<path id="Vector_13" d="M166.129 179.88L67.4034 180C67.3048 179.999 67.2105 179.95 67.141 179.863C67.0715 179.777 67.0325 179.659 67.0325 179.537C67.0325 179.414 67.0715 179.297 67.141 179.21C67.2105 179.123 67.3048 179.074 67.4034 179.073L166.129 178.953C166.228 178.954 166.322 179.003 166.391 179.09C166.461 179.177 166.5 179.294 166.5 179.417C166.5 179.539 166.461 179.657 166.391 179.744C166.322 179.831 166.228 179.88 166.129 179.88Z" fill="var(--fill-0, #DFE4E6)"/>
<path id="Vector_14" d="M128.579 95.2325C128.579 95.2325 116.218 101.542 109.68 97.2373C109.68 97.2373 108.25 103.922 107.677 104.475C107.103 105.028 106.19 105.269 106.838 105.886C107.485 106.503 107.846 107.336 106.615 108.394C105.384 109.452 104.156 109.116 105.343 110.206C106.53 111.296 101.754 138.027 101.754 138.027C101.754 138.027 102.518 162.885 101.754 163.637C100.99 164.389 99.9686 164.557 100.957 165.487C101.945 166.417 101.945 165.696 101.945 166.978V168.26L102.397 169.535H108.6C108.6 169.535 110.097 167.857 108.6 166.399C107.103 164.942 109.056 164.543 109.513 163.176C109.969 161.808 110.733 163.283 109.969 161.808C109.205 160.333 108.838 160.614 108.83 159.644C108.823 158.674 120.094 120.698 120.094 120.698L121.46 141.717L137.881 164.737L142.714 161.239C142.714 161.239 139.195 156.458 140.018 155.801C140.841 155.144 137.593 154.32 138.617 153.578C139.641 152.837 137.176 152.09 138.105 151.107C139.034 150.125 136.824 147.648 135.544 147.648C134.264 147.648 132.467 143.519 132.467 143.519L135.149 110.902L128.579 95.2325Z" fill="var(--fill-0, #2C2244)"/>
<path id="Vector_15" d="M116.125 48.2933C116.035 48.4118 115.312 48.348 114.444 48.2217C112.727 47.9719 112.493 48.2687 111.209 49.4319C109.35 51.1168 110.407 61.3938 109.493 63.6205L109.198 63.8372C109.784 63.7258 110.359 63.5655 110.917 63.358C111.233 62.3663 111.549 61.3715 111.868 60.3806C112.168 61.1515 112.357 61.9612 112.429 62.7852C112.871 62.6116 113.31 62.1871 115.157 61.6177C116.087 60.9892 122.816 60.3573 123.681 60.0808C125.876 52.6401 122.338 49.6311 116.125 48.2933Z" fill="var(--fill-0, #2C2244)"/>
<path id="Vector_16" d="M117.847 59.6512C121.43 59.6512 124.334 57.0742 124.334 53.8953C124.334 50.7165 121.43 48.1395 117.847 48.1395C114.265 48.1395 111.36 50.7165 111.36 53.8953C111.36 57.0742 114.265 59.6512 117.847 59.6512Z" fill="var(--fill-0, #FEB3B3)"/>
<path id="Vector_17" d="M121.652 48.6737C121.255 48.6307 120.873 48.5323 120.526 48.3838C120.355 48.3076 120.216 48.1974 120.125 48.0658C120.034 47.9342 119.996 47.7865 120.014 47.6397C120.101 47.272 120.666 47.0525 121.173 47.0749C121.678 47.1283 122.157 47.2709 122.571 47.4904C122.525 47.1351 122.319 46.8013 121.984 46.5427C121.649 46.284 121.206 46.1155 120.726 46.0642C121.392 46.0378 122.085 46.0145 122.702 46.2029C123.318 46.3913 123.832 46.8578 123.721 47.3416C124.757 47.2435 125.779 47.7741 126.207 48.4747C126.635 49.1752 126.55 49.9979 126.208 50.7236C126.174 50.8347 126.108 50.9392 126.015 51.03C125.921 51.1208 125.802 51.1957 125.666 51.2498C125.317 51.3471 124.942 51.184 124.64 51.0232C123.061 50.1832 121.625 49.208 120.36 48.1183" fill="var(--fill-0, #2C2244)"/>
<path id="Vector_18" d="M124.728 60.6793C124.474 60.8026 124.606 61.2612 124.409 61.4665C124.323 61.5535 124.22 61.6198 124.106 61.6605C124.076 61.2777 123.99 60.9019 123.85 60.5462C123.824 60.4815 123.782 60.4093 123.715 60.415C123.638 60.4245 123.617 60.5291 123.616 60.607C123.6 60.9938 123.517 61.3745 123.37 61.7309C123.368 61.7347 123.367 61.7404 123.365 61.7442C123.308 61.7423 123.249 61.7404 123.193 61.7385C122.765 61.7214 121.817 60.588 121.607 60.9722C122.349 59.6164 123.252 57.5779 123.391 56.0281C123.438 55.7037 123.415 55.3722 123.322 55.0583C123.274 54.9021 123.183 54.7636 123.06 54.6591C122.938 54.5546 122.789 54.4886 122.631 54.4688C122.553 54.4652 122.475 54.4793 122.403 54.5102C122.331 54.5411 122.267 54.5881 122.214 54.6477C122.162 54.7073 122.123 54.778 122.1 54.855C122.078 54.9319 122.072 55.013 122.083 55.0926L121.976 55.0773C120.984 54.2445 121.84 52.7974 120.685 52.225C120.294 52.031 117.9 52.6795 117.478 52.5654C117.469 52.1067 117.378 51.6536 117.211 51.2286C117.185 51.1639 117.142 51.0917 117.076 51.0974C116.998 51.1069 116.978 51.2115 116.976 51.2894C116.961 51.6762 116.878 52.0569 116.731 52.4133C116.146 52.3277 115.55 52.36 114.977 52.5083C114.472 52.6452 113.992 52.881 113.485 53.0065C113.234 53.0858 112.971 53.1114 112.71 53.082C112.449 53.0526 112.197 52.9687 111.969 52.8354C111.326 52.3904 111.213 51.4054 111.534 50.679C111.766 50.2129 112.08 49.7952 112.46 49.4468C112.749 49.1578 113.05 48.8802 113.351 48.6025C113.62 48.3534 113.889 48.1043 114.158 47.8552C114.497 47.5263 114.858 47.2225 115.239 46.9463C115.847 46.5356 116.529 46.2573 117.245 46.1284C117.961 45.9996 118.695 46.0229 119.401 46.1971C120.25 46.4062 121.384 46.1115 122.16 46.5203C122.566 46.7352 123.464 47.5586 123.82 47.8514C124.731 48.5987 124.115 47.9898 125.111 48.4219C127.487 49.4522 126.437 59.8498 124.728 60.6793Z" fill="var(--fill-0, #2C2244)"/>
<path id="Path 336" d="M23.2521 23.1438H84.5656L84.7756 23.1526C85.2638 23.1906 85.7346 23.3489 86.1418 23.6125C86.6066 23.9136 86.9678 24.3383 87.1828 24.8323L87.1916 24.8528C87.3264 25.173 87.3969 25.5147 87.3957 25.8596V100.945C87.3944 101.659 87.1 102.348 86.5724 102.859C86.0441 103.37 85.3244 103.66 84.5705 103.661H23.2521C22.4982 103.661 21.7785 103.371 21.2502 102.86C20.7884 102.413 20.5053 101.829 20.4416 101.211L20.4279 100.944V25.8616C20.4283 25.1463 20.7224 24.4565 21.2502 23.9456C21.7785 23.4344 22.4983 23.1442 23.2521 23.1438Z" fill="var(--fill-0, white)" stroke="var(--stroke-0, #0276B1)"/>
<path id="Path 337" d="M74.636 41H56.9196C56.7333 41.0003 56.5487 40.9617 56.3765 40.8865C56.2043 40.8112 56.0478 40.7008 55.9159 40.5615C55.7841 40.4222 55.6795 40.2567 55.6081 40.0746C55.5367 39.8924 55.5 39.6972 55.5 39.5C55.5 39.3028 55.5367 39.1076 55.6081 38.9254C55.6795 38.7433 55.7841 38.5778 55.9159 38.4385C56.0478 38.2992 56.2043 38.1888 56.3765 38.1135C56.5487 38.0383 56.7333 37.9997 56.9196 38H74.636C74.8223 37.9997 75.0069 38.0383 75.1791 38.1135C75.3513 38.1888 75.5078 38.2992 75.6396 38.4385C75.7715 38.5778 75.8761 38.7433 75.9475 38.9254C76.0188 39.1076 76.0556 39.3028 76.0556 39.5C76.0556 39.6972 76.0188 39.8924 75.9475 40.0746C75.8761 40.2567 75.7715 40.4222 75.6396 40.5615C75.5078 40.7008 75.3513 40.8112 75.1791 40.8865C75.0069 40.9617 74.8223 41.0003 74.636 41Z" fill="var(--fill-0, #0276B1)"/>
<path id="Path 338" d="M74.636 47H56.9196C56.7333 47.0003 56.5487 46.9617 56.3765 46.8865C56.2043 46.8112 56.0478 46.7008 55.9159 46.5615C55.7841 46.4222 55.6795 46.2567 55.6081 46.0746C55.5367 45.8924 55.5 45.6972 55.5 45.5C55.5 45.3028 55.5367 45.1076 55.6081 44.9254C55.6795 44.7433 55.7841 44.5778 55.9159 44.4385C56.0478 44.2992 56.2043 44.1888 56.3765 44.1135C56.5487 44.0383 56.7333 43.9997 56.9196 44H74.636C74.8223 43.9997 75.0069 44.0383 75.1791 44.1135C75.3513 44.1888 75.5078 44.2992 75.6396 44.4385C75.7715 44.5778 75.8761 44.7433 75.9475 44.9254C76.0188 45.1076 76.0556 45.3028 76.0556 45.5C76.0556 45.6972 76.0188 45.8924 75.9475 46.0746C75.8761 46.2567 75.7715 46.4222 75.6396 46.5615C75.5078 46.7008 75.3513 46.8112 75.1791 46.8865C75.0069 46.9617 74.8223 47.0003 74.636 47Z" fill="var(--fill-0, #0276B1)"/>
<path id="Path 339" d="M46.4311 52.0808H33.2677C32.8378 52.0803 32.4257 51.9051 32.1218 51.5935C31.8178 51.282 31.6469 50.8595 31.6464 50.4189V34.4954C31.6469 34.0548 31.8178 33.6324 32.1218 33.3208C32.4257 33.0092 32.8378 32.834 33.2677 32.8335H46.4311C46.861 32.834 47.2731 33.0092 47.577 33.3208C47.881 33.6324 48.0519 34.0548 48.0524 34.4954V50.4189C48.0519 50.8595 47.881 51.282 47.577 51.5935C47.2731 51.9051 46.861 52.0803 46.4311 52.0808Z" fill="var(--fill-0, #0276B1)"/>
<path id="Path 341" d="M74.5923 63H33.3199C32.9328 62.9994 32.5618 62.8411 32.2883 62.5598C32.0147 62.2786 31.8611 61.8974 31.8611 61.5C31.8611 61.1026 32.0147 60.7214 32.2883 60.4402C32.5618 60.1589 32.9328 60.0006 33.3199 60H74.5923C74.7843 59.9997 74.9746 60.0383 75.1521 60.1135C75.3296 60.1888 75.4909 60.2992 75.6268 60.4385C75.7627 60.5778 75.8706 60.7433 75.9441 60.9254C76.0177 61.1076 76.0556 61.3028 76.0556 61.5C76.0556 61.6972 76.0177 61.8924 75.9441 62.0746C75.8706 62.2567 75.7627 62.4222 75.6268 62.5615C75.4909 62.7008 75.3296 62.8112 75.1521 62.8865C74.9746 62.9617 74.7843 63.0003 74.5923 63Z" fill="var(--fill-0, #D0C8E5)"/>
<path id="Path 345" d="M74.5923 70H33.3199C32.9328 69.9994 32.5618 69.8411 32.2883 69.5598C32.0147 69.2786 31.8611 68.8974 31.8611 68.5C31.8611 68.1026 32.0147 67.7214 32.2883 67.4402C32.5618 67.1589 32.9328 67.0006 33.3199 67H74.5923C74.7843 66.9997 74.9746 67.0383 75.1521 67.1135C75.3296 67.1888 75.4909 67.2992 75.6268 67.4385C75.7627 67.5778 75.8706 67.7433 75.9441 67.9254C76.0177 68.1076 76.0556 68.3028 76.0556 68.5C76.0556 68.6972 76.0177 68.8924 75.9441 69.0746C75.8706 69.2567 75.7627 69.4222 75.6268 69.5615C75.4909 69.7008 75.3296 69.8112 75.1521 69.8865C74.9746 69.9617 74.7843 70.0003 74.5923 70Z" fill="var(--fill-0, #D0C8E5)"/>
<path id="Path 347" d="M74.5923 84H33.3199C32.9328 83.9994 32.5618 83.8411 32.2883 83.5598C32.0147 83.2786 31.8611 82.8974 31.8611 82.5C31.8611 82.1026 32.0147 81.7214 32.2883 81.4402C32.5618 81.1589 32.9328 81.0006 33.3199 81H74.5923C74.7843 80.9997 74.9746 81.0383 75.1521 81.1135C75.3296 81.1888 75.4909 81.2992 75.6268 81.4385C75.7627 81.5778 75.8706 81.7433 75.9441 81.9254C76.0177 82.1076 76.0556 82.3028 76.0556 82.5C76.0556 82.6972 76.0177 82.8924 75.9441 83.0746C75.8706 83.2567 75.7627 83.4222 75.6268 83.5615C75.4909 83.7008 75.3296 83.8112 75.1521 83.8865C74.9746 83.9617 74.7843 84.0003 74.5923 84Z" fill="var(--fill-0, #D0C8E5)"/>
<path id="Path 346" d="M74.5923 77H33.3199C32.9328 76.9994 32.5618 76.8411 32.2883 76.5598C32.0147 76.2786 31.8611 75.8974 31.8611 75.5C31.8611 75.1026 32.0147 74.7214 32.2883 74.4402C32.5618 74.1589 32.9328 74.0006 33.3199 74H74.5923C74.7843 73.9997 74.9746 74.0383 75.1521 74.1135C75.3296 74.1888 75.4909 74.2992 75.6268 74.4385C75.7627 74.5778 75.8706 74.7433 75.9441 74.9254C76.0177 75.1076 76.0556 75.3028 76.0556 75.5C76.0556 75.6972 76.0177 75.8924 75.9441 76.0746C75.8706 76.2567 75.7627 76.4222 75.6268 76.5615C75.4909 76.7008 75.3296 76.8112 75.1521 76.8865C74.9746 76.9617 74.7843 77.0003 74.5923 77Z" fill="var(--fill-0, #D0C8E5)"/>
<path id="Path 348" d="M74.5923 91H33.3199C32.9328 90.9994 32.5618 90.8411 32.2883 90.5598C32.0147 90.2786 31.8611 89.8974 31.8611 89.5C31.8611 89.1026 32.0147 88.7214 32.2883 88.4402C32.5618 88.1589 32.9328 88.0006 33.3199 88H74.5923C74.7843 87.9997 74.9746 88.0383 75.1521 88.1135C75.3296 88.1888 75.4909 88.2992 75.6268 88.4385C75.7627 88.5778 75.8706 88.7433 75.9441 88.9254C76.0177 89.1076 76.0556 89.3028 76.0556 89.5C76.0556 89.6972 76.0177 89.8924 75.9441 90.0746C75.8706 90.2567 75.7627 90.4222 75.6268 90.5615C75.4909 90.7008 75.3296 90.8112 75.1521 90.8865C74.9746 90.9617 74.7843 91.0003 74.5923 91Z" fill="var(--fill-0, #D0C8E5)"/>
</g>
<defs>
<clipPath id="clip0_0_63">
<rect width="166.5" height="180" fill="white"/>
</clipPath>
</defs>
</svg>
